PathFileType	4	(X/Y/Z)	/Users/niels/Desktop/University/Third Semester/Perception and Action/Exam/Gymnastics Motion Tracking/Code for Gym Tracking/Analyzed Data/Webcam_Backflip/id4_3_baseline_Sports2D/id4_3_baseline_Sports2D_px_person00.trc
DataRate	CameraRate	NumFrames	NumMarkers	Units	OrigDataRate	OrigDataStartFrame	OrigNumFrames
29.8125	29.8125	10	22	m	29.8125	20	160
Frame#	Time	Hip			RHip			RKnee			RAnkle			RBigToe			RSmallToe			RHeel			LHip			LKnee			LAnkle			LBigToe			LSmallToe			LHeel			Neck			Head			Nose			RShoulder			RElbow			RWrist			LShoulder			LElbow			LWrist		
		X1	Y1	Z1	X2	Y2	Z2	X3	Y3	Z3	X4	Y4	Z4	X5	Y5	Z5	X6	Y6	Z6	X7	Y7	Z7	X8	Y8	Z8	X9	Y9	Z9	X10	Y10	Z10	X11	Y11	Z11	X12	Y12	Z12	X13	Y13	Z13	X14	Y14	Z14	X15	Y15	Z15	X16	Y16	Z16	X17	Y17	Z17	X18	Y18	Z18	X19	Y19	Z19	X20	Y20	Z20	X21	Y21	Z21	X22	Y22	Z22
20	0.670859538784067	0.9550131743401145	-0.46532151649831116	0.0	0.9569808778159696	-0.46698122975478057	0.0	1.050282254486322	-0.4656540404239344	0.0	1.0318597559565756	-0.5617944967598919	0.0	1.0506221789556018	-0.5916016108279153	0.0	1.0481391119616057	-0.5924854705068906	0.0	1.0241845058122436	-0.5763083883481248	0.0	0.9515494388305467	-0.46160825306942166	0.0	1.0381697655344393	-0.46139629696184564	0.0	1.028952772041694	-0.5560446584268607	0.0	1.0558651475601275	-0.5842844497601472	0.0	1.0476296495487603	-0.5861595745646114	0.0	1.017534912571354	-0.5744217183846727	0.0	0.8432197434915067	-0.3826186849509697	0.0	0.7817432384271173	-0.34601483888879675	0.0	0.8239179913071729	-0.34170976318896384	0.0	0.8523735724299317	-0.3847214646684366	0.0	0.904737996996145	-0.348049803250451	0.0	0.9221587065813196	-0.28659891628629913	0.0	0.8479066955298246	-0.38411801382032645	0.0	0.9008239627778933	-0.34739845357238536	0.0	0.9153142304577662	-0.2888276057856126	0.0
21	0.7044025157232703	0.958884192307583	-0.4432501296414824	0.0	0.9614303593047051	-0.4448994622075196	0.0	1.0452331340162144	-0.4058361334281854	0.0	1.0511801379708616	-0.495127517284896	0.0	1.0763877933296577	-0.5124929426894121	0.0	1.0753797799934854	-0.5154968409285787	0.0	1.0475109638191882	-0.5103010802811067	0.0	0.9564520575155655	-0.4395684890890401	0.0	1.0348577016095488	-0.4042182114324222	0.0	1.0482646910274829	-0.48936420507816114	0.0	1.0780219248765741	-0.50600432207795	0.0	1.0726223046271437	-0.5087399716880917	0.0	1.0424843196995455	-0.5081748206237724	0.0	0.8356265486648135	-0.37918714146625043	0.0	0.7712646255719864	-0.3534893106250675	0.0	0.8121378851727332	-0.34246611396931664	0.0	0.8463909245766802	-0.37908019828051	0.0	0.9057747808499768	-0.3448036496212073	0.0	0.9294066356211809	-0.2837201096175359	0.0	0.8429192653646754	-0.3803277783268339	0.0	0.9008678046842065	-0.3440512036750901	0.0	0.9216830227597782	-0.2860692755351841	0.0
22	0.7379454926624737	0.9649649450837091	-0.42338022873601916	0.0	0.9681152687633671	-0.42447450157128763	0.0	1.0298740130309212	-0.3542946169378726	0.0	1.063113192681722	-0.4283418647822092	0.0	1.0916617057045872	-0.43091694401439257	0.0	1.0925089460107238	-0.43577319089270006	0.0	1.0642974074065403	-0.4429267839010279	0.0	0.9630190949349405	-0.42013511042438373	0.0	1.022252956007432	-0.35561773000750174	0.0	1.0604122796735793	-0.42328808420347674	0.0	1.0904072666106888	-0.4262450121765187	0.0	1.0880399880152687	-0.429322403294829	0.0	1.0613745300641526	-0.4403000545753161	0.0	0.8336701267539618	-0.3825734474474791	0.0	0.7678951913224684	-0.36915000023794103	0.0	0.8057985325666739	-0.35153267006518324	0.0	0.845877037248532	-0.37875118191198176	0.0	0.9096357479860113	-0.34260457740450767	0.0	0.9367917100926635	-0.28136523991224327	0.0	0.8432315415785171	-0.38303152856884204	0.0	0.9034010671631312	-0.344270860176679	0.0	0.9294064313773127	-0.2847968557614819	0.0
23	0.771488469601677	0.9727316934927871	-0.4039979502777005	0.0	0.9762026148444611	-0.40399928171494637	0.0	1.0067016000363624	-0.3147638971919615	0.0	1.064089058993947	-0.36432289172580684	0.0	1.0902440447919264	-0.3525348533198883	0.0	1.0932813899123996	-0.35815098884166224	0.0	1.069811077021066	-0.37634784853038344	0.0	0.9708618436648302	-0.4016882973826388	0.0	1.0028029993318754	-0.31913884420228894	0.0	1.0619025502759876	-0.36065611623598515	0.0	1.0879512420368687	-0.3506799542391509	0.0	1.0880701238129982	-0.35348986536443605	0.0	1.0691451700992327	-0.37297574348441026	0.0	0.8381595678672207	-0.3915956428861626	0.0	0.7731540983504676	-0.3917891398707214	0.0	0.8060541075351298	-0.3680720624351948	0.0	0.8511080963653924	-0.38272419837735505	0.0	0.9148317909465873	-0.34091798212774227	0.0	0.9408657692483726	-0.27908920304305335	0.0	0.8494200254818147	-0.39095346646978596	0.0	0.9077341029460642	-0.3475362428872905	0.0	0.9367759116405099	-0.28481519254511867	0.0
24	0.8050314465408803	0.9808196332002259	-0.38390535018480926	0.0	0.9841241607698782	-0.38248965846320204	0.0	0.9792259297403626	-0.28892034831382984	0.0	1.0520105366723262	-0.3072653530443052	0.0	1.0697979975546328	-0.2839172256191765	0.0	1.0749687469892468	-0.28882508085193387	0.0	1.0608352341476464	-0.3148861158769771	0.0	0.9788882010989113	-0.3828796432485137	0.0	0.9800221585320037	-0.2962329268195857	0.0	1.0506790906609251	-0.305222160806655	0.0	1.0683002812851146	-0.28538048273709443	0.0	1.070012840741641	-0.28752544649722794	0.0	1.0622173429525568	-0.3102425523796051	0.0	0.849649196720898	-0.404391773453834	0.0	0.7884323085033403	-0.4189920115152053	0.0	0.8141603969408217	-0.39042477098550626	0.0	0.8620817211147214	-0.3898200601812996	0.0	0.9202432850991189	-0.33978682831314233	0.0	0.9394889267915338	-0.2775965949609635	0.0	0.8618040298800312	-0.40215622413803004	0.0	0.9135720946562872	-0.3527092374790974	0.0	0.9433997074462709	-0.28684993562815375	0.0
25	0.8385744234800837	0.9874276913613336	-0.36289483262628025	0.0	0.9900832283183912	-0.36012518942961896	0.0	0.950720871137419	-0.27648195803580977	0.0	1.026761992115633	-0.2619405584254873	0.0	1.0323107563636815	-0.23156945334036255	0.0	1.0389742911220952	-0.23457248179313536	0.0	1.0367202587755915	-0.2643146160440563	0.0	0.9854562470940629	-0.36314265385947664	0.0	0.9568743706847539	-0.2860554746746869	0.0	1.0265510346323328	-0.2610527927036851	0.0	1.0322480474951048	-0.23584217790229936	0.0	1.0348456180035162	-0.23753095352596076	0.0	1.0397145464386663	-0.257589530433906	0.0	0.8681997529581197	-0.418560320171125	0.0	0.8143940630307283	-0.44745992209276697	0.0	0.8309653906388622	-0.41603041659895085	0.0	0.878601680781829	-0.39875528484771866	0.0	0.9251608050105644	-0.33958235594313274	0.0	0.9322290578919589	-0.27854304941596436	0.0	0.8802524127937894	-0.41422527325397046	0.0	0.9205175658434815	-0.35793227144012096	0.0	0.9496654264763477	-0.2920026414703309	0.0
26	0.8721174004192871	0.9909455440286773	-0.34192014853650576	0.0	0.9926174672207378	-0.33826930902388586	0.0	0.9237173182985287	-0.27605293018354504	0.0	0.9902654870402348	-0.23220802375371133	0.0	0.982578039404389	-0.20070067270749692	0.0	0.9897948006975337	-0.2010629794989413	0.0	0.9994427126407405	-0.22958083009315708	0.0	0.9889605335085792	-0.34311731728568456	0.0	0.9349333106367583	-0.28635819853104133	0.0	0.9912672421302092	-0.2314336968453541	0.0	0.9835089901190565	-0.20615347061316402	0.0	0.9865697427461978	-0.20804995735865206	0.0	1.0036100198798277	-0.2202248161966606	0.0	0.8930931216431041	-0.4314203800937897	0.0	0.8504919089201886	-0.473580072144997	0.0	0.8564889425461785	-0.4415518543924472	0.0	0.9001279131026528	-0.4080187582661362	0.0	0.9292136723276928	-0.3408429169744996	0.0	0.9204418800230182	-0.28404786219804457	0.0	0.903950189161098	-0.42456073854510185	0.0	0.9279033330729741	-0.3616645440694273	0.0	0.9557998362034471	-0.3010835190274988	0.0
27	0.9056603773584905	0.9904669143806507	-0.32281842075444833	0.0	0.9909991968417838	-0.3190630264223839	0.0	0.9002935542729349	-0.2860095707079966	0.0	0.9461421205119482	-0.2201060639342405	0.0	0.9264603668706608	-0.19418269027135673	0.0	0.9334873833722007	-0.1913487033942464	0.0	0.952897181367001	-0.21319285980222108	0.0	0.9885459267850248	-0.324534364036631	0.0	0.9148664136571006	-0.29487127494902027	0.0	0.9482767664403777	-0.21847700022033997	0.0	0.9279719997924516	-0.19860576503145852	0.0	0.9313251169263549	-0.2009756389395916	0.0	0.9579200060312408	-0.20179203518417316	0.0	0.9226975948893096	-0.44054438705932286	0.0	0.8947125729442071	-0.49398861077338585	0.0	0.889755528234578	-0.46335208640705444	0.0	0.9254928642178116	-0.41585343330910773	0.0	0.9324557933962179	-0.34422979503609435	0.0	0.9070302299785604	-0.2961259463560932	0.0	0.9313446911492937	-0.4309703388768279	0.0	0.9351258176517238	-0.3639623817086335	0.0	0.9611604821869346	-0.31446689685388973	0.0
28	0.9392033542976937	0.985940116817452	-0.3077779964965528	0.0	0.9853730393596313	-0.30478368359768265	0.0	0.8822383297373435	-0.30448416319750715	0.0	0.8990825172100805	-0.22619080443796946	0.0	0.8705822226040999	-0.21225835616452507	0.0	0.8767717500574292	-0.2059157360115289	0.0	0.9021035700031933	-0.21577881514698416	0.0	0.9843352776519755	-0.30964293751475336	0.0	0.8974565956177609	-0.31000674779233384	0.0	0.9021380405760013	-0.2235585511167848	0.0	0.8727344437628358	-0.21411704904162182	0.0	0.8765066533282554	-0.2162096060168354	0.0	0.9077977875399436	-0.20422699748523282	0.0	0.9545595416139312	-0.4444013753238722	0.0	0.9436245720255908	-0.5061487830643083	0.0	0.9286100960034029	-0.47829325836680436	0.0	0.9528325412218173	-0.4206674200091285	0.0	0.9354650898648681	-0.3504844375417126	0.0	0.8958015690405281	-0.3161839079305236	0.0	0.9602517916795728	-0.4324086749044126	0.0	0.9419791096750656	-0.36653989006038273	0.0	0.964379828107291	-0.33249555668090996	0.0
29	0.9727463312368971	0.9779992819609111	-0.29884328842350394	0.0	0.976580766530244	-0.29721348772142414	0.0	0.8705488348758839	-0.3289179130745902	0.0	0.8542942887423282	-0.2500344443953824	0.0	0.8222312781666637	-0.25267516607498713	0.0	0.8265882963711731	-0.24327762482799414	0.0	0.852733566085019	-0.23716506198714601	0.0	0.9770737018135625	-0.30067644615781325	0.0	0.8838795674340391	-0.33060723338370174	0.0	0.8581091394024467	-0.24726766214269844	0.0	0.8253975532032721	-0.2521399521562378	0.0	0.8296398281023981	-0.252705101403771	0.0	0.8591020835794595	-0.2277452624688572	0.0	0.9857897688854046	-0.4427357101234512	0.0	0.9929076554118822	-0.5089396936104154	0.0	0.9696698645610039	-0.4846714408102759	0.0	0.9798797547377206	-0.4215926205260916	0.0	0.9391287082555017	-0.36023098330491743	0.0	0.890460274835264	-0.3444781114309861	0.0	0.9880859370308338	-0.42923712131934594	0.0	0.9486132249822924	-0.3716546624189515	0.0	0.9643506146694064	-0.35573214357404337	0.0
